<svg width="215" height="181" viewBox="0 0 215 181" fill="none" xmlns="http://www.w3.org/2000/svg">
<path fill-rule="evenodd" clip-rule="evenodd" d="M98 0C96.4974 0 95.2791 1.21525 95.2791 2.71429V187.286C95.2791 188.785 96.4974 190 98 190C99.5026 190 100.721 188.785 100.721 187.286V2.71429C100.721 1.21525 99.5026 0 98 0ZM78.9535 27.1429C77.4509 27.1429 76.2326 28.358 76.2326 29.8571V187.286C76.2326 188.785 77.4509 190 78.9535 190C80.4561 190 81.6744 188.785 81.6744 187.286V29.8571C81.6744 28.358 80.4561 27.1429 78.9535 27.1429ZM59.907 54.2857C58.4044 54.2857 57.1861 55.5009 57.1861 57V187.286C57.1861 188.785 58.4044 190 59.907 190C61.4096 190 62.6279 188.785 62.6279 187.286V57C62.6279 55.5009 61.4096 54.2857 59.907 54.2857ZM40.8605 81.4286C39.3578 81.4286 38.1395 82.6437 38.1395 84.1429V187.286C38.1395 188.785 39.3578 190 40.8605 190C42.3631 190 43.5814 188.785 43.5814 187.286V84.1429C43.5814 82.6437 42.3631 81.4286 40.8605 81.4286ZM21.814 108.571C20.3113 108.571 19.093 109.787 19.093 111.286V187.286C19.093 188.785 20.3113 190 21.814 190C23.3166 190 24.5349 188.785 24.5349 187.286V111.286C24.5349 109.787 23.3166 108.571 21.814 108.571ZM2.76744 135.714C1.26482 135.714 0.0465126 136.929 0.0465126 138.429V187.286C0.0465126 188.785 1.26482 190 2.76744 190C4.27007 190 5.48837 188.785 5.48837 187.286V138.429C5.48837 136.929 4.27007 135.714 2.76744 135.714ZM-19 165.571C-19 164.072 -17.7817 162.857 -16.2791 162.857C-14.7764 162.857 -13.5581 164.072 -13.5581 165.571V187.286C-13.5581 188.785 -14.7764 190 -16.2791 190C-17.7817 190 -19 188.785 -19 187.286V165.571ZM215 165.571C215 164.072 213.782 162.857 212.279 162.857C210.776 162.857 209.558 164.072 209.558 165.571V187.286C209.558 188.785 210.776 190 212.279 190C213.782 190 215 188.785 215 187.286V165.571ZM195.953 138.429C195.953 136.929 194.735 135.714 193.233 135.714C191.73 135.714 190.512 136.929 190.512 138.429V187.286C190.512 188.785 191.73 190 193.233 190C194.735 190 195.953 188.785 195.953 187.286V138.429ZM176.907 111.286C176.907 109.787 175.689 108.571 174.186 108.571C172.683 108.571 171.465 109.787 171.465 111.286V187.286C171.465 188.785 172.683 190 174.186 190C175.689 190 176.907 188.785 176.907 187.286V111.286ZM157.86 84.1429C157.86 82.6437 156.642 81.4286 155.14 81.4286C153.637 81.4286 152.419 82.6437 152.419 84.1429V187.286C152.419 188.785 153.637 190 155.14 190C156.642 190 157.86 188.785 157.86 187.286V84.1429ZM138.814 57C138.814 55.5009 137.596 54.2857 136.093 54.2857C134.59 54.2857 133.372 55.5009 133.372 57V187.286C133.372 188.785 134.59 190 136.093 190C137.596 190 138.814 188.785 138.814 187.286V57ZM119.767 29.8571C119.767 28.358 118.549 27.1429 117.047 27.1429C115.544 27.1429 114.326 28.358 114.326 29.8571V187.286C114.326 188.785 115.544 190 117.047 190C118.549 190 119.767 188.785 119.767 187.286V29.8571Z" fill="white"/>
</svg>
