<svg width="237" height="100" viewBox="0 0 237 100" fill="none" xmlns="http://www.w3.org/2000/svg">
<path d="M-17.6709 31.9432C-15.4948 32.3138 -13.4302 30.8516 -13.057 28.6766L-13.0566 28.6744L-13.0528 28.6538C-13.0477 28.6259 -13.0385 28.5765 -13.0247 28.5072C-12.9973 28.3684 -12.952 28.1501 -12.8863 27.8637C-12.7545 27.2899 -12.5419 26.4484 -12.2274 25.4294C-11.5941 23.3769 -10.571 20.6804 -9.01431 18.0202C-5.90351 12.7039 -1.00236 8 7.00064 8C15.3308 8 21.7713 12.9569 29.5063 19.127L29.9186 19.456C33.9633 22.6843 38.4088 26.2324 43.5349 28.7288C47.5589 30.6884 52.0023 32 57.0006 32C61.9769 32 66.4032 30.7 70.4131 28.7547C75.5618 26.257 80.024 22.6955 84.0827 19.456L84.495 19.127C92.23 12.9569 98.6705 8 107.001 8C115.331 8 121.771 12.9569 129.506 19.127L129.919 19.456C134.016 22.7261 138.524 26.3244 143.734 28.8253C147.706 30.7314 152.085 32 157.001 32C161.895 32 166.257 30.7427 170.214 28.8507C175.447 26.3488 179.972 22.7372 184.083 19.456L184.495 19.127C192.23 12.9569 198.67 8 207.001 8C215.065 8 220.364 12.7752 223.861 18.1744C225.601 20.8614 226.801 23.5791 227.566 25.6416C227.947 26.6664 228.213 27.5127 228.382 28.0901C228.466 28.3784 228.526 28.5984 228.562 28.7386C228.58 28.8087 228.593 28.8588 228.6 28.8873L228.605 28.9069L228.606 28.9112L228.606 28.9129L228.607 28.9144C229.111 31.0616 231.258 32.3961 233.408 31.8958C235.559 31.3949 236.897 29.2447 236.396 27.0931L232.501 28C236.396 27.0931 236.396 27.0915 236.396 27.0898L236.395 27.086L236.393 27.0766L236.387 27.0514L236.368 26.975C236.353 26.9127 236.331 26.828 236.304 26.7223C236.249 26.511 236.169 26.2153 236.061 25.8474C235.847 25.1123 235.521 24.0836 235.067 22.8584C234.162 20.4209 232.721 17.1386 230.575 13.8256C226.3 7.22482 218.849 0 207.001 0C195.635 0 187.138 6.78156 179.919 12.544L179.506 12.873C171.771 19.0431 165.331 24 157.001 24C148.67 24 142.23 19.0431 134.495 12.873L134.083 12.544C126.863 6.78156 118.366 0 107.001 0C95.635 0 87.1384 6.78155 79.9186 12.544L79.5063 12.873C71.7713 19.0431 65.3308 24 57.0006 24C48.6705 24 42.23 19.0431 34.495 12.873L34.0827 12.544C26.8629 6.78155 18.3663 0 7.00064 0C-4.90927 0 -12.0081 7.29611 -15.9191 13.9798C-17.8733 17.3196 -19.1165 20.6231 -19.8718 23.0706C-20.2516 24.3016 -20.5139 25.3351 -20.6834 26.0738C-20.7683 26.4436 -20.8303 26.7409 -20.8725 26.9537C-20.8935 27.0602 -20.9097 27.1456 -20.9212 27.2085L-20.9352 27.2859L-20.9397 27.3116L-20.9413 27.3212L-20.942 27.3251C-20.9423 27.3268 -20.9426 27.3285 -16.9994 28L-20.9426 27.3285C-21.3135 29.5063 -19.8487 31.5724 -17.6709 31.9432Z" fill="#FFCD33"/>
<path d="M-13.057 62.6767C-13.4302 64.8516 -15.4948 66.3138 -17.6709 65.9432C-19.8487 65.5724 -21.3135 63.5063 -20.9426 61.3285L-16.9994 62C-20.9426 61.3285 -20.9423 61.3268 -20.942 61.3251L-20.9413 61.3212L-20.9397 61.3116L-20.9352 61.2859L-20.9212 61.2085C-20.9097 61.1456 -20.8935 61.0602 -20.8725 60.9537C-20.8303 60.7409 -20.7683 60.4436 -20.6834 60.0738C-20.5139 59.3351 -20.2516 58.3016 -19.8718 57.0706C-19.1165 54.6231 -17.8733 51.3196 -15.9191 47.9798C-12.0081 41.2961 -4.90927 34 7.00064 34C18.3663 34 26.8629 40.7816 34.0827 46.544L34.495 46.873C42.23 53.0431 48.6705 58 57.0006 58C65.3308 58 71.7713 53.0431 79.5063 46.873L79.9186 46.544C87.1384 40.7816 95.635 34 107.001 34C118.366 34 126.863 40.7816 134.083 46.544L134.495 46.873C142.23 53.0431 148.67 58 157.001 58C165.331 58 171.771 53.0431 179.506 46.873L179.919 46.544C187.138 40.7816 195.635 34 207.001 34C218.849 34 226.3 41.2248 230.575 47.8256C232.721 51.1386 234.162 54.4209 235.067 56.8584C235.521 58.0836 235.847 59.1123 236.061 59.8474C236.169 60.2153 236.249 60.511 236.304 60.7223C236.331 60.828 236.353 60.9127 236.368 60.975L236.387 61.0514L236.393 61.0766L236.395 61.086L236.396 61.0898C236.396 61.0915 236.396 61.0931 232.501 62L236.396 61.0931C236.897 63.2447 235.559 65.3949 233.408 65.8958C231.258 66.3961 229.111 65.0616 228.607 62.9144L228.606 62.9129L228.606 62.9112L228.605 62.9069L228.6 62.8873C228.593 62.8588 228.58 62.8087 228.562 62.7386C228.526 62.5984 228.466 62.3784 228.382 62.0901C228.213 61.5127 227.947 60.6664 227.566 59.6416C226.801 57.5791 225.601 54.8614 223.861 52.1744C220.364 46.7752 215.065 42 207.001 42C198.67 42 192.23 46.9569 184.495 53.127L184.083 53.456C179.972 56.7372 175.447 60.3489 170.214 62.8507C166.257 64.7427 161.895 66 157.001 66C152.085 66 147.706 64.7314 143.734 62.8252C138.524 60.3244 134.016 56.7261 129.919 53.456L129.506 53.127C121.771 46.9569 115.331 42 107.001 42C98.6705 42 92.23 46.9569 84.495 53.127L84.0827 53.456C80.024 56.6955 75.5618 60.257 70.4131 62.7547C66.4032 64.7 61.9769 66 57.0006 66C52.0023 66 47.5589 64.6885 43.5349 62.7288C38.4088 60.2324 33.9633 56.6843 29.9186 53.456L29.5063 53.127C21.7713 46.9569 15.3308 42 7.00064 42C-1.00236 42 -5.90351 46.7039 -9.01431 52.0202C-10.571 54.6804 -11.5941 57.3769 -12.2274 59.4294C-12.5419 60.4484 -12.7545 61.2899 -12.8863 61.8637C-12.952 62.1501 -12.9973 62.3684 -13.0247 62.5072C-13.0385 62.5765 -13.0477 62.6259 -13.0528 62.6538L-13.0566 62.6744L-13.057 62.6767Z" fill="#FFCD33"/>
<path d="M-13.0566 96.6743L-13.0568 96.6754C-13.4294 98.851 -15.4944 100.314 -17.6709 99.9432C-19.8487 99.5724 -21.3135 97.5063 -20.9426 95.3285L-16.9994 96C-20.9426 95.3285 -20.9423 95.3268 -20.942 95.3251L-20.9413 95.3212L-20.9397 95.3116L-20.9352 95.2859L-20.9212 95.2085C-20.9097 95.1456 -20.8935 95.0602 -20.8725 94.9537C-20.8303 94.7409 -20.7683 94.4436 -20.6834 94.0738C-20.5139 93.3351 -20.2516 92.3016 -19.8718 91.0706C-19.1165 88.6231 -17.8733 85.3196 -15.9191 81.9798C-12.0081 75.2961 -4.90927 68 7.00064 68C18.3663 68 26.8629 74.7816 34.0827 80.544L34.495 80.873C42.23 87.0431 48.6705 92 57.0006 92C65.3308 92 71.7713 87.0431 79.5063 80.873L79.9186 80.544C87.1384 74.7816 95.635 68 107.001 68C118.366 68 126.863 74.7816 134.083 80.544L134.495 80.873C142.23 87.0431 148.67 92 157.001 92C165.331 92 171.771 87.0431 179.506 80.873L179.919 80.544C187.138 74.7816 195.635 68 207.001 68C218.849 68 226.3 75.2248 230.575 81.8256C232.721 85.1386 234.162 88.4209 235.067 90.8584C235.521 92.0836 235.847 93.1123 236.061 93.8474C236.169 94.2153 236.249 94.511 236.304 94.7223C236.331 94.828 236.353 94.9127 236.368 94.975L236.387 95.0514L236.393 95.0766L236.395 95.086L236.396 95.0898C236.396 95.0915 236.396 95.0931 232.501 96L236.396 95.0931C236.897 97.2447 235.559 99.3949 233.408 99.8958C231.258 100.396 229.111 99.0616 228.607 96.9144L228.606 96.9129L228.606 96.9112L228.605 96.9069L228.6 96.8873C228.597 96.8744 228.592 96.8571 228.587 96.8355C228.58 96.8094 228.572 96.777 228.562 96.7386C228.526 96.5984 228.466 96.3784 228.382 96.0901C228.213 95.5127 227.947 94.6664 227.566 93.6416C226.801 91.5791 225.601 88.8614 223.861 86.1744C220.364 80.7752 215.065 76 207.001 76C198.67 76 192.23 80.9569 184.495 87.127L184.083 87.456C179.972 90.7372 175.447 94.3489 170.214 96.8507C166.257 98.7427 161.895 100 157.001 100C152.085 100 147.706 98.7314 143.734 96.8252C138.524 94.3244 134.016 90.7261 129.919 87.456L129.506 87.127C121.771 80.9569 115.331 76 107.001 76C98.6705 76 92.23 80.9569 84.495 87.127L84.0827 87.456C80.024 90.6955 75.5618 94.257 70.4131 96.7547C66.4032 98.7 61.9769 100 57.0006 100C52.0023 100 47.5589 98.6885 43.5349 96.7288C38.4088 94.2324 33.9634 90.6843 29.9187 87.4561L29.5063 87.127C21.7713 80.9569 15.3308 76 7.00064 76C-1.00236 76 -5.90351 80.7039 -9.01431 86.0202C-10.571 88.6804 -11.5941 91.3769 -12.2274 93.4294C-12.5419 94.4484 -12.7545 95.2899 -12.8863 95.8637C-12.952 96.1501 -12.9973 96.3684 -13.0247 96.5072C-13.0385 96.5765 -13.0477 96.6259 -13.0528 96.6538L-13.0566 96.6743Z" fill="#FFCD33"/>
</svg>
