<svg width="34" height="34" viewBox="0 0 34 34" fill="none" xmlns="http://www.w3.org/2000/svg">
<path fill-rule="evenodd" clip-rule="evenodd" d="M20.7793 7.47364C16.1947 5.43083 10.8124 6.64688 7.55138 10.4623C4.29032 14.2778 3.92726 19.7837 6.65909 23.9943C9.39092 28.2049 14.5669 30.1172 19.3801 28.6941C24.1929 27.2711 27.4966 22.8522 27.5 17.8334M27.5 17.8323L27.5 16.5934C27.5 15.4889 28.3954 14.5934 29.5 14.5934C30.6046 14.5934 31.5 15.4889 31.5 16.5934V17.8346C31.4961 24.6252 27.0262 30.6045 20.5142 32.5299C14.0022 34.4553 6.99948 31.8681 3.30347 26.1714C-0.392536 20.4747 0.0986629 13.0255 4.51069 7.86344C8.92272 2.70137 16.2046 1.05613 22.4073 3.81993C23.4163 4.26949 23.8698 5.45184 23.4202 6.46078C22.9706 7.46973 21.7883 7.9232 20.7793 7.47364" fill="#F68410"/>
<path fill-rule="evenodd" clip-rule="evenodd" d="M32.2475 4.41904C33.0286 5.20009 33.0286 6.46642 32.2475 7.24747L17.5808 21.9141C16.7998 22.6952 15.5335 22.6952 14.7524 21.9141L10.7524 17.9141C9.97136 17.1331 9.97136 15.8668 10.7524 15.0857C11.5335 14.3047 12.7998 14.3047 13.5808 15.0857L16.1666 17.6715L29.4191 4.41904C30.2001 3.63799 31.4665 3.63799 32.2475 4.41904Z" fill="#F68410"/>
</svg>
