<svg width="385" height="385" viewBox="0 0 385 385" fill="none" xmlns="http://www.w3.org/2000/svg">
<rect x="28.5" y="26.5" width="328.055" height="331.303" rx="44.5" fill="white" stroke="#B5B5B5" stroke-width="9"/>
<circle cx="345" cy="40" r="40" fill="#DD0B0B"/>
<path fill-rule="evenodd" clip-rule="evenodd" d="M198.603 95.0003C184.603 94.9638 170.792 98.2347 158.296 104.547L158.242 104.573C127.633 119.871 108.291 151.147 108.278 185.367L108.278 185.398C108.242 199.398 111.513 213.208 117.824 225.705C119.507 229.037 119.79 232.903 118.61 236.444L104.136 279.864L147.556 265.391C151.098 264.21 154.964 264.493 158.296 266.176C170.792 272.488 184.603 275.759 198.603 275.722L198.634 275.722C232.853 275.709 264.129 256.367 279.427 225.758L279.454 225.705C285.766 213.208 289.037 199.398 289 185.398L289 185.361V179.622C286.3 134.056 249.944 97.7 204.378 95.0003H198.639L198.603 95.0003ZM317 185.343C317.045 203.736 312.749 221.879 304.461 238.299C284.421 278.375 243.468 303.699 198.66 303.722C198.655 303.722 198.65 303.722 198.645 303.722L198.676 303.722C198.671 303.722 198.665 303.722 198.66 303.722C182.254 303.763 166.046 300.349 151.082 293.73L86.4276 315.282C81.3969 316.958 75.8505 315.649 72.1009 311.899C68.3512 308.15 67.0419 302.604 68.7188 297.573L90.2705 232.918C83.651 217.955 80.2376 201.747 80.2781 185.34C80.2781 185.346 80.2781 185.351 80.2781 185.356L80.2782 185.325C80.2782 185.33 80.2782 185.335 80.2781 185.34C80.3013 140.534 105.624 99.5814 145.698 79.5405C145.689 79.545 145.681 79.5495 145.672 79.554L145.725 79.5273C145.716 79.5317 145.707 79.5361 145.698 79.5405C162.119 71.2519 180.263 66.9554 198.657 67.0003H204.778C205.035 67.0003 205.292 67.0074 205.549 67.0216C265.663 70.338 313.662 118.338 316.979 178.451C316.993 178.708 317 178.965 317 179.222V185.343Z" fill="#F68410"/>
</svg>
