<svg width="394" height="273" viewBox="0 0 394 273" fill="none" xmlns="http://www.w3.org/2000/svg">
<g clip-path="url(#clip0)">
<path d="M336.647 214.069C336.549 213.944 336.453 213.82 336.357 213.695C336.261 213.57 336.165 213.445 336.07 213.319C335.975 213.194 335.88 213.068 335.786 212.942C335.692 212.815 335.598 212.689 335.505 212.561C335.348 208.903 335.346 205.277 335.498 201.683C335.647 198.115 335.947 194.589 336.398 191.107C336.845 187.651 337.436 184.248 338.172 180.898C338.902 177.574 339.772 174.313 340.783 171.114C340.898 170.745 341.015 170.378 341.135 170.012C341.254 169.646 341.375 169.283 341.499 168.922C341.622 168.559 341.748 168.198 341.875 167.838C342.003 167.479 342.132 167.121 342.263 166.764C343.236 164.093 344.308 161.488 345.477 158.948C346.638 156.425 347.892 153.973 349.239 151.59C350.576 149.224 352.001 146.931 353.514 144.71C355.017 142.507 356.603 140.38 358.273 138.33L358.536 138.009L358.8 137.689L359.065 137.371L359.331 137.054L359.523 136.827L359.716 136.601C359.781 136.526 359.846 136.451 359.911 136.377C359.976 136.302 360.043 136.228 360.11 136.155L360.269 136.068L360.426 135.981L360.583 135.895L360.74 135.809L360.75 135.806L360.759 135.801L360.769 135.796L360.779 135.793L360.842 135.758L360.905 135.723L360.966 135.688L361.025 135.652L361.298 135.505L361.57 135.36L361.842 135.216L362.111 135.07L361.906 134.966L361.389 134.707L361.392 134.705C361.437 134.724 361.481 134.745 361.524 134.766C361.568 134.787 361.612 134.807 361.656 134.827C361.7 134.848 361.744 134.869 361.787 134.889C361.83 134.91 361.874 134.931 361.918 134.953L361.968 134.974L362.018 134.996L362.07 135.018C362.087 135.025 362.103 135.033 362.119 135.043C362.133 135.05 362.148 135.057 362.164 135.062L362.208 135.081L362.252 135.1L362.297 135.119C364.179 135.987 366.066 136.868 367.929 137.792C369.791 138.716 371.625 139.679 373.41 140.716C375.189 141.744 376.913 142.866 378.576 144.077C380.234 145.282 381.803 146.605 383.271 148.038C384.82 149.561 386.205 151.244 387.404 153.058C388.59 154.841 389.566 156.758 390.31 158.768C391.027 160.682 391.454 162.693 391.577 164.734C391.695 166.697 391.421 168.665 390.77 170.519C390.682 170.761 390.587 170.999 390.485 171.235C390.383 171.47 390.274 171.701 390.159 171.929C390.044 172.157 389.921 172.381 389.792 172.601C389.663 172.821 389.528 173.037 389.386 173.249C389.327 173.337 389.266 173.424 389.205 173.511C389.143 173.598 389.08 173.684 389.017 173.769C388.954 173.854 388.889 173.939 388.824 174.024C388.759 174.108 388.694 174.192 388.627 174.275C387.395 175.835 385.828 177.094 384.045 177.959C382.251 178.821 380.302 179.307 378.317 179.388C376.23 179.476 374.145 179.171 372.169 178.49C370.049 177.762 368.08 176.65 366.357 175.21C365.762 174.715 365.198 174.183 364.668 173.618C364.143 173.057 363.653 172.465 363.202 171.844C362.753 171.228 362.344 170.584 361.977 169.916C361.612 169.253 361.291 168.567 361.015 167.862C360.885 170.051 361.222 172.243 362.005 174.29C362.83 176.442 363.952 178.466 365.338 180.303C366.802 182.259 368.427 184.088 370.194 185.771C371.973 187.488 373.864 189.097 375.731 190.58C377.597 192.062 379.53 193.578 381.402 195.159C383.271 196.713 385.051 198.374 386.732 200.133C388.363 201.832 389.805 203.705 391.033 205.717C392.24 207.704 393.113 209.878 393.616 212.151C394.154 214.627 394.127 217.193 393.536 219.657C393.249 220.855 392.84 222.021 392.315 223.135C391.787 224.259 391.153 225.329 390.423 226.332L390.355 226.424L390.287 226.515L390.217 226.606L390.146 226.697C388.365 229.039 386.13 230.992 383.575 232.438C382.29 233.165 380.934 233.761 379.53 234.215C378.093 234.681 376.613 235.001 375.113 235.172C372.258 235.437 369.38 235.271 366.574 234.68C363.685 234.071 360.876 233.126 358.204 231.862C355.442 230.561 352.802 229.013 350.315 227.236C347.806 225.449 345.431 223.48 343.209 221.344C342.618 220.778 342.039 220.201 341.469 219.614C340.9 219.027 340.342 218.43 339.794 217.823C339.246 217.216 338.71 216.6 338.186 215.974C337.662 215.349 337.149 214.714 336.647 214.069Z" fill="#F2F2F2"/>
<path d="M382.542 171.682C380.777 170.76 379.081 169.713 377.466 168.547C374.239 166.22 371.356 163.444 368.904 160.302C367.687 158.744 366.586 157.098 365.608 155.378C364.791 153.924 364.067 152.421 363.438 150.876C362.825 149.369 362.309 147.824 361.894 146.249C361.489 144.712 361.187 143.149 360.99 141.57C360.797 140.024 360.712 138.466 360.737 136.908C360.739 136.82 360.741 136.733 360.743 136.646C360.744 136.56 360.746 136.472 360.749 136.384C360.751 136.297 360.754 136.21 360.759 136.124L360.772 135.865C360.698 135.924 360.624 135.984 360.55 136.043L360.329 136.224L360.109 136.406L359.89 136.589L359.75 136.706L359.609 136.824L359.468 136.943L359.329 137.062L359.521 136.836L359.717 136.602C359.782 136.527 359.847 136.452 359.912 136.377C359.978 136.303 360.044 136.229 360.111 136.156L360.27 136.069L360.428 135.982L360.581 135.896L360.738 135.81L360.748 135.806L360.758 135.802L360.767 135.797L360.777 135.793L360.841 135.759L360.903 135.724L360.964 135.689L361.024 135.653L361.297 135.506L361.569 135.361L361.84 135.217L362.112 135.072L361.899 134.966L361.383 134.706L361.386 134.704C361.431 134.723 361.475 134.744 361.518 134.765C361.562 134.786 361.606 134.806 361.65 134.826C361.695 134.847 361.738 134.868 361.781 134.888C361.824 134.909 361.868 134.93 361.912 134.952L361.962 134.973L362.013 134.995L362.064 135.017C362.081 135.024 362.097 135.032 362.113 135.041L362.108 135.124L362.102 135.201L362.098 135.278L362.094 135.356C361.903 137.981 362.039 140.619 362.498 143.209C362.97 145.876 363.745 148.479 364.808 150.967C365.906 153.543 367.279 155.991 368.902 158.269C370.579 160.625 372.5 162.795 374.634 164.742C376.781 166.674 379.124 168.375 381.623 169.817C382.857 170.529 384.128 171.174 385.431 171.751C386.722 172.321 388.043 172.821 389.388 173.247C389.329 173.335 389.268 173.423 389.207 173.509C389.145 173.596 389.083 173.682 389.019 173.767C388.956 173.853 388.892 173.938 388.827 174.022C388.762 174.107 388.696 174.19 388.629 174.274C388.111 174.101 387.595 173.917 387.081 173.722C386.568 173.527 386.057 173.321 385.549 173.105C385.041 172.889 384.537 172.662 384.036 172.424C383.535 172.186 383.037 171.939 382.542 171.682Z" fill="white"/>
<path d="M347.62 191.296C347.042 190.428 346.497 189.544 345.984 188.644C345.471 187.744 344.992 186.831 344.546 185.906C344.101 184.98 343.689 184.043 343.311 183.095C342.934 182.146 342.592 181.189 342.286 180.224C342.129 179.712 341.985 179.198 341.853 178.682C341.72 178.167 341.601 177.65 341.493 177.133C341.386 176.616 341.291 176.097 341.208 175.578C341.124 175.058 341.054 174.539 340.997 174.021C340.968 173.779 340.942 173.537 340.918 173.294C340.895 173.051 340.875 172.809 340.857 172.567C340.839 172.324 340.824 172.082 340.811 171.84C340.798 171.598 340.788 171.356 340.781 171.115C340.896 170.746 341.013 170.379 341.133 170.013C341.252 169.647 341.373 169.283 341.496 168.92C341.619 168.557 341.745 168.196 341.872 167.837C342 167.477 342.129 167.119 342.261 166.762C342.232 167.061 342.208 167.361 342.187 167.661C342.167 167.962 342.151 168.263 342.139 168.565C342.127 168.868 342.119 169.171 342.115 169.475C342.112 169.778 342.112 170.083 342.117 170.388C342.117 170.554 342.118 170.72 342.122 170.886C342.125 171.052 342.129 171.219 342.135 171.385C342.141 171.551 342.148 171.717 342.156 171.884C342.165 172.05 342.175 172.216 342.186 172.382C342.313 174.247 342.604 176.097 343.055 177.911C343.512 179.746 344.108 181.544 344.838 183.287C345.581 185.065 346.439 186.791 347.405 188.457C348.388 190.151 349.462 191.79 350.624 193.366C351.874 195.067 353.195 196.723 354.588 198.335C355.981 199.946 357.426 201.514 358.925 203.037C360.424 204.559 361.968 206.034 363.556 207.461C365.143 208.889 366.758 210.268 368.399 211.596C370.079 212.961 371.793 214.274 373.541 215.534C375.289 216.795 377.066 218.001 378.871 219.151C380.676 220.301 382.507 221.395 384.366 222.433C386.225 223.471 388.104 224.449 390.005 225.369C390.092 225.412 390.171 225.47 390.238 225.541C390.303 225.611 390.355 225.692 390.393 225.78C390.431 225.866 390.453 225.959 390.459 226.053C390.465 226.148 390.452 226.244 390.422 226.334C390.412 226.373 390.399 226.411 390.381 226.447C390.365 226.482 390.344 226.516 390.321 226.547C390.297 226.578 390.271 226.606 390.242 226.631C390.212 226.656 390.181 226.678 390.147 226.696C390.111 226.713 390.074 226.724 390.035 226.731C389.996 226.738 389.957 226.74 389.918 226.737C389.878 226.735 389.838 226.727 389.8 226.715C389.76 226.703 389.722 226.687 389.686 226.666C389.451 226.553 389.217 226.439 388.982 226.325C388.747 226.211 388.513 226.096 388.279 225.98C388.046 225.864 387.812 225.748 387.579 225.63C387.346 225.512 387.113 225.392 386.88 225.271C384.943 224.27 383.031 223.208 381.146 222.087C379.26 220.965 377.403 219.785 375.574 218.547C373.746 217.309 371.95 216.015 370.188 214.666C368.426 213.316 366.701 211.913 365.013 210.457C363.383 209.054 361.773 207.604 360.202 206.105C358.631 204.606 357.099 203.059 355.625 201.462C354.15 199.866 352.734 198.221 351.393 196.526C350.052 194.831 348.789 193.088 347.62 191.296Z" fill="white"/>
<path d="M384.115 51.987L382.728 52.1684L392.032 17.0274C392.718 14.6809 392.829 12.2024 392.357 9.80311C391.948 7.84269 390.935 6.06177 389.463 4.71307C387.922 3.36455 386.032 2.4822 384.014 2.16782C381.555 1.78465 379.045 1.89774 376.63 2.5005V2.5005L313.395 16.9919C311.187 17.5308 309.075 18.4053 307.13 19.5853C305.015 20.8511 303.047 22.3521 301.265 24.0601C299.431 25.8017 297.786 27.7331 296.355 29.8223C294.957 31.8445 293.818 34.0355 292.963 36.3438V36.3438L226.8 219.468C225.701 222.479 224.986 225.619 224.674 228.811C224.384 231.646 224.521 234.508 225.079 237.301C225.545 239.728 226.519 242.028 227.935 244.048C229.234 245.885 231.064 247.273 233.175 248.026V248.026L299.988 271.171C302.955 272.188 306.141 272.379 309.208 271.723C312.487 271.005 315.57 269.576 318.245 267.536C321.247 265.266 323.829 262.481 325.873 259.31C328.136 255.825 329.827 251.997 330.881 247.972V247.972L375.674 78.8029L377.079 78.6896L384.115 51.987Z" fill="#2F2E41"/>
<path d="M379.282 50.0414L377.894 50.2228L387.198 15.0819C387.884 12.7354 387.996 10.2568 387.524 7.85757C387.114 5.89715 386.102 4.11623 384.63 2.76753C383.088 1.41901 381.199 0.536655 379.18 0.222271C376.721 -0.160892 374.211 -0.0478033 371.797 0.554954L308.561 15.0464C306.354 15.5852 304.241 16.4598 302.296 17.6398C300.181 18.9056 298.214 20.4066 296.432 22.1145C294.598 23.8562 292.952 25.7876 291.521 27.8768C290.124 29.8989 288.984 32.0899 288.13 34.3982V34.3982L221.967 217.522C220.867 220.533 220.152 223.673 219.84 226.866C219.551 229.7 219.687 232.562 220.246 235.356C220.712 237.783 221.685 240.083 223.101 242.102C224.4 243.939 226.23 245.328 228.342 246.08V246.08L295.154 269.225C298.122 270.242 301.308 270.433 304.375 269.778C307.653 269.059 310.737 267.63 313.411 265.591C316.414 263.32 318.996 260.536 321.039 257.364C323.302 253.88 324.993 250.052 326.047 246.027V246.027L370.84 76.8574L372.246 76.744L379.282 50.0414Z" fill="#3F3D56"/>
<path d="M371.237 5.14012L361.942 7.18927C362.044 7.99855 361.964 8.82044 361.708 9.59445C361.418 10.4998 360.998 11.3575 360.461 12.1402C359.252 13.9171 357.639 15.3777 355.756 16.4005C355.531 16.5211 355.306 16.6325 355.082 16.7346C354.858 16.8368 354.634 16.9295 354.41 17.0128C354.187 17.0962 353.966 17.1698 353.746 17.2336C353.525 17.2975 353.308 17.3513 353.093 17.3951L316.75 24.8004C316.076 24.958 315.374 24.95 314.703 24.777C314.163 24.6312 313.687 24.3084 313.35 23.8597C313.01 23.3779 312.818 22.8063 312.798 22.2157C312.77 21.4624 312.888 20.7108 313.146 20.0031C313.211 19.8121 313.284 19.6199 313.367 19.4263C313.449 19.2327 313.539 19.0391 313.636 18.8455C313.733 18.651 313.839 18.4574 313.953 18.2648C314.067 18.0722 314.188 17.8797 314.315 17.6874L307.434 19.2045C305.776 19.5956 304.189 20.242 302.728 21.1208C301.131 22.0673 299.646 23.1932 298.302 24.4769C296.916 25.7884 295.674 27.2448 294.595 28.8213C293.543 30.3448 292.688 31.9967 292.05 33.7372L226.011 218.453C225.19 220.723 224.662 223.089 224.442 225.495C224.238 227.618 224.359 229.76 224.798 231.847C225.165 233.651 225.912 235.354 226.991 236.84C227.98 238.189 229.359 239.197 230.939 239.727V239.727L298.243 261.73C300.463 262.447 302.834 262.554 305.109 262.04C307.532 261.482 309.809 260.407 311.784 258.889C313.994 257.205 315.896 255.148 317.406 252.809C319.078 250.24 320.332 247.419 321.122 244.454V244.454L382.616 16.1038C383.132 14.3607 383.228 12.5189 382.895 10.7311C382.606 9.26611 381.87 7.92842 380.789 6.90474C379.657 5.88127 378.258 5.20297 376.757 4.94897C374.923 4.63909 373.046 4.7041 371.237 5.14012V5.14012Z" fill="white"/>
<path d="M335.144 92.6237H201.258V46.9687H335.144V92.6237Z" fill="white"/>
<path d="M296.001 108.737H164.784V172.744H296.001V108.737Z" fill="white"/>
<path d="M186.101 139.473C191.343 139.473 195.593 135.197 195.593 129.922C195.593 124.647 191.343 120.371 186.101 120.371C180.859 120.371 176.61 124.647 176.61 129.922C176.61 135.197 180.859 139.473 186.101 139.473Z" fill="#F9A826"/>
<path d="M208.022 123.555C207.602 123.555 207.2 123.722 206.903 124.021C206.607 124.32 206.44 124.724 206.44 125.147C206.44 125.569 206.607 125.974 206.903 126.272C207.2 126.571 207.602 126.738 208.022 126.738H282.597C283.016 126.737 283.417 126.569 283.713 126.271C284.009 125.972 284.175 125.568 284.175 125.147C284.175 124.725 284.009 124.321 283.713 124.022C283.417 123.724 283.016 123.556 282.597 123.555H208.022Z" fill="#E6E6E6"/>
<path d="M208.022 133.106C207.814 133.105 207.608 133.146 207.416 133.225C207.223 133.305 207.048 133.421 206.901 133.569C206.754 133.716 206.636 133.892 206.556 134.085C206.476 134.278 206.435 134.485 206.435 134.694C206.434 134.903 206.475 135.111 206.554 135.304C206.633 135.498 206.749 135.673 206.896 135.822C207.043 135.97 207.217 136.087 207.409 136.168C207.601 136.248 207.807 136.289 208.015 136.289H240.112C240.319 136.289 240.525 136.248 240.717 136.168C240.909 136.088 241.083 135.971 241.23 135.823C241.377 135.675 241.494 135.5 241.573 135.307C241.653 135.114 241.694 134.907 241.694 134.698C241.694 134.489 241.653 134.282 241.573 134.088C241.494 133.895 241.377 133.72 241.23 133.572C241.083 133.424 240.909 133.307 240.717 133.227C240.525 133.147 240.319 133.106 240.112 133.106H208.022Z" fill="#E6E6E6"/>
<path d="M178.821 148.375C177.618 148.375 176.639 149.089 176.639 149.967C176.639 150.845 177.618 151.559 178.821 151.559H281.712C282.915 151.559 283.894 150.845 283.894 149.967C283.894 149.089 282.915 148.375 281.712 148.375H178.821Z" fill="#E6E6E6"/>
<path d="M178.821 157.926C177.618 157.926 176.639 158.64 176.639 159.518C176.639 160.396 177.618 161.11 178.821 161.11H258.028C259.231 161.11 260.21 160.396 260.21 159.518C260.21 158.64 259.231 157.926 258.028 157.926H178.821Z" fill="#E6E6E6"/>
<path d="M297.335 174.087H163.45V107.394H297.335V174.087ZM166.119 171.401H294.667V110.08H166.119V171.401Z" fill="#E6E6E6"/>
<path d="M223.909 79.0474C229.151 79.0474 233.401 74.7713 233.401 69.4964C233.401 64.2215 229.151 59.9453 223.909 59.9453C218.668 59.9453 214.418 64.2215 214.418 69.4964C214.418 74.7713 218.668 79.0474 223.909 79.0474Z" fill="#F9A826"/>
<path d="M245.83 63.129C245.41 63.129 245.008 63.2967 244.711 63.5952C244.415 63.8938 244.248 64.2986 244.248 64.7208C244.248 65.143 244.415 65.5479 244.711 65.8464C245.008 66.145 245.41 66.3127 245.83 66.3127H320.405C320.824 66.3116 321.225 66.1435 321.521 65.845C321.817 65.5466 321.983 65.1423 321.983 64.7208C321.983 64.2993 321.817 63.895 321.521 63.5966C321.225 63.2982 320.824 63.13 320.405 63.129H245.83Z" fill="#E6E6E6"/>
<path d="M245.83 72.68C245.622 72.6793 245.416 72.7199 245.224 72.7993C245.031 72.8788 244.857 72.9956 244.709 73.1432C244.562 73.2907 244.445 73.466 244.365 73.6591C244.285 73.8522 244.243 74.0593 244.243 74.2685C244.242 74.4777 244.283 74.685 244.362 74.8784C244.441 75.0718 244.558 75.2477 244.704 75.3958C244.851 75.544 245.026 75.6615 245.218 75.7418C245.41 75.8221 245.615 75.8635 245.823 75.8637H304.504C304.924 75.8637 305.326 75.696 305.623 75.3975C305.919 75.0989 306.086 74.694 306.086 74.2719C306.086 73.8497 305.919 73.4448 305.623 73.1463C305.326 72.8477 304.924 72.68 304.504 72.68H245.83Z" fill="#E6E6E6"/>
<path d="M335.144 92.6237H201.258V46.9687H335.144V92.6237ZM203.927 89.9381H332.475V49.6542H203.927V89.9381Z" fill="#E6E6E6"/>
<path d="M72.0735 266.534H78.8225L82.0333 240.338L72.072 240.338L72.0735 266.534Z" fill="#FFB6B6"/>
<path d="M91.839 272.84L70.6275 272.841L70.6272 264.594L84.6431 264.593C86.5514 264.593 88.3817 265.356 89.7312 266.714C91.0807 268.072 91.8389 269.913 91.8389 271.834L91.839 272.84V272.84Z" fill="#2F2E41"/>
<path d="M4.586 257.733L10.5002 261.004L25.8562 239.606L17.1274 234.777L4.586 257.733Z" fill="#FFB6B6"/>
<path d="M18.887 272.841L0.299453 262.557L4.24771 255.331L16.5298 262.126C18.2022 263.051 19.4407 264.607 19.9731 266.451C20.5055 268.295 20.2881 270.276 19.3687 271.959L18.887 272.841V272.841Z" fill="#2F2E41"/>
<path d="M71.7582 251.994C71.1568 251.994 70.5761 251.773 70.1245 251.373C69.6729 250.974 69.3812 250.422 69.3039 249.822L60.8633 184.372C60.826 184.082 60.6988 183.812 60.4997 183.599C60.3007 183.387 60.0401 183.243 59.755 183.189C59.47 183.135 59.1752 183.172 58.9127 183.296C58.6502 183.421 58.4334 183.625 58.2933 183.881L23.1166 248.103C22.8263 248.627 22.3587 249.029 21.7988 249.236C21.2388 249.443 20.6237 249.441 20.0653 249.23L12.3978 246.29C12.0894 246.172 11.8076 245.993 11.5689 245.763C11.3303 245.534 11.1395 245.259 11.0079 244.954C10.8763 244.65 10.8066 244.322 10.8027 243.99C10.7988 243.658 10.8609 243.328 10.9853 243.021L35.353 182.784C35.4147 182.631 35.4566 182.47 35.4775 182.307C38.778 156.601 47.1755 143.528 49.6705 140.134C49.8528 139.885 49.9727 139.595 50.0202 139.289C50.0677 138.983 50.0414 138.67 49.9435 138.376L49.6005 137.341C49.4635 136.93 49.4354 136.49 49.519 136.065C49.6026 135.64 49.795 135.244 50.0772 134.916C59.0677 124.612 74.7379 130.235 74.8951 130.293L74.9736 130.322L75.0228 130.389C92.5936 154.638 86.097 233.397 84.6164 248.939C84.5611 249.523 84.3023 250.068 83.8858 250.479C83.4693 250.889 82.922 251.138 82.3405 251.182L71.9505 251.987C71.886 251.992 71.8219 251.994 71.7582 251.994Z" fill="#2F2E41"/>
<path d="M66.9942 70.1311C75.2895 70.1311 82.0142 63.3642 82.0142 55.0167C82.0142 46.6692 75.2895 39.9023 66.9942 39.9023C58.6989 39.9023 51.9742 46.6692 51.9742 55.0167C51.9742 63.3642 58.6989 70.1311 66.9942 70.1311Z" fill="#FFB8B8"/>
<path d="M43.7731 151.193L87.9703 155.241C84.117 141.758 80.5866 128.323 83.4643 114.936C87.1185 102.984 87.4582 96.3638 77.8184 90.7352L71.3097 76.1246L59.5302 75.6936L53.7864 74.1093C49.1459 81.6174 47.2477 90.5169 48.4176 99.2799C50.9145 118.336 50.2402 136.018 43.7731 151.193Z" fill="white"/>
<path d="M50.4817 83.7467L46.036 63.214C45.1084 58.3536 45.3412 53.3411 46.7151 48.5889C46.8647 48.1019 47.045 47.625 47.255 47.1611C48.4856 44.4623 50.4204 42.1499 52.8534 40.4699C55.2865 38.79 58.1267 37.8054 61.0717 37.621C71.1752 36.9187 72.6585 37.9905 73.0237 38.5192C78.7329 38.2872 83.1599 40.5067 85.1798 44.6142C85.3777 45.0219 85.4843 45.4683 85.4921 45.9219C85.5 46.3755 85.4089 46.8254 85.2253 47.2398C85.0417 47.6542 84.77 48.023 84.4294 48.3203C84.0889 48.6176 83.6877 48.8362 83.2541 48.9606C80.4324 49.7792 76.4665 50.6886 73.4922 50.4211C67.5303 57.6172 69.9675 70.8016 76.0162 78.6572L76.2539 78.966L70.261 80.2019L63.2968 70.4425C63.159 70.2494 62.9594 70.1098 62.7316 70.0469C62.5037 69.9841 62.2613 70.0018 62.0449 70.0973C61.8285 70.1927 61.6512 70.3599 61.5427 70.5711C61.4341 70.7823 61.4009 71.0245 61.4485 71.2574L63.5629 81.5936L50.4817 83.7467Z" fill="#2F2E41"/>
<path d="M136.333 139.035L27.0187 216.824L0.823181 179.547L110.138 101.759L136.333 139.035Z" fill="white"/>
<path d="M37.7232 192.578C42.0031 189.533 43.0192 183.572 39.9926 179.266C36.966 174.959 31.0429 173.936 26.763 176.982C22.4831 180.028 21.467 185.988 24.4936 190.295C27.5202 194.602 33.4433 195.624 37.7232 192.578Z" fill="#F9A826"/>
<path d="M46.4873 166.845C46.1447 167.089 45.9124 167.46 45.8415 167.876C45.7706 168.292 45.8668 168.719 46.1091 169.064C46.3513 169.409 46.7197 169.643 47.1332 169.714C47.5467 169.785 47.9714 169.689 48.314 169.445L109.203 126.116C109.544 125.872 109.775 125.501 109.846 125.086C109.916 124.67 109.82 124.244 109.578 123.9C109.336 123.555 108.968 123.322 108.556 123.25C108.143 123.178 107.719 123.274 107.376 123.517L46.4873 166.845Z" fill="#E6E6E6"/>
<path d="M51.9675 174.644C51.625 174.887 51.3924 175.257 51.3208 175.673C51.2493 176.088 51.3447 176.516 51.586 176.861C51.8273 177.206 52.1949 177.44 52.608 177.512C53.021 177.585 53.4457 177.489 53.7888 177.247L53.7942 177.243L101.7 143.153C102.043 142.909 102.275 142.538 102.346 142.122C102.417 141.706 102.321 141.279 102.078 140.934C101.959 140.763 101.806 140.618 101.631 140.507C101.455 140.395 101.259 140.32 101.054 140.284C100.641 140.213 100.216 140.31 99.8736 140.554L51.9675 174.644Z" fill="#E6E6E6"/>
<path d="M136.333 139.035L27.0187 216.824L0.823181 179.547L110.138 101.759L136.333 139.035ZM27.6568 213.08L132.613 138.393L109.499 105.502L4.54312 180.19L27.6568 213.08Z" fill="#E6E6E6"/>
<path d="M385.941 125.224C386.329 125.209 386.715 125.276 387.076 125.419C387.419 125.557 387.729 125.765 387.988 126.029C388.248 126.295 388.451 126.613 388.585 126.961C388.725 127.33 388.789 127.724 388.773 128.119C388.757 128.525 388.664 128.923 388.497 129.293C388.334 129.655 388.108 129.984 387.828 130.265C387.551 130.545 387.225 130.771 386.866 130.933C386.503 131.097 386.11 131.187 385.712 131.198C385.324 131.21 384.937 131.14 384.578 130.993C384.237 130.853 383.928 130.644 383.671 130.378C383.414 130.111 383.213 129.794 383.082 129.446C382.943 129.078 382.881 128.686 382.898 128.293C382.914 127.89 383.007 127.493 383.173 127.126C383.335 126.767 383.559 126.44 383.836 126.162C384.112 125.883 384.435 125.656 384.791 125.494C385.153 125.329 385.544 125.237 385.941 125.224V125.224Z" fill="#F2F2F2"/>
<path d="M78.6087 163.144L71.5002 124.039L72.0008 99.8561L55.9795 99.3523L58.9835 126.558L69.3426 164.284C68.4828 165.336 67.9559 166.623 67.83 167.979C67.704 169.334 67.9848 170.697 68.6361 171.891C69.2873 173.085 70.2791 174.055 71.4835 174.676C72.688 175.297 74.0497 175.541 75.393 175.375C76.7364 175.21 77.9996 174.643 79.0198 173.748C80.04 172.854 80.7703 171.672 81.1164 170.355C81.4625 169.038 81.4086 167.648 80.9616 166.362C80.5146 165.077 79.6951 163.956 78.6087 163.144H78.6087Z" fill="#FFB8B8"/>
<path d="M54.9783 101.871C60.7829 99.6466 67.1977 99.6466 73.0023 101.871L72.0009 81.7188C72.0009 80.6602 71.7937 79.612 71.3912 78.634C70.9886 77.656 70.3985 76.7674 69.6547 76.0188C68.9108 75.2703 68.0277 74.6765 67.0558 74.2714C66.0839 73.8663 65.0423 73.6578 63.9903 73.6578V73.6578C62.9383 73.6578 61.8966 73.8663 60.9247 74.2714C59.9528 74.6765 59.0697 75.2703 58.3259 76.0188C57.582 76.7674 56.992 77.656 56.5894 78.634C56.1868 79.612 55.9796 80.6602 55.9796 81.7188L54.9783 101.871Z" fill="white"/>
</g>
<defs>
<clipPath id="clip0">
<rect width="394" height="273" fill="white"/>
</clipPath>
</defs>
</svg>
